<?xml version="1.0" standalone="no"?>
<!DOCTYPE svg PUBLIC "-//W3C//DTD SVG 20010904//EN"
 "http://www.w3.org/TR/2001/REC-SVG-20010904/DTD/svg10.dtd">
<svg version="1.0" xmlns="http://www.w3.org/2000/svg"
 width="227.000000pt" height="227.000000pt" viewBox="0 0 227.000000 227.000000"
 preserveAspectRatio="xMidYMid meet">

<g transform="translate(0.000000,227.000000) scale(0.100000,-0.100000)"
fill="#000000" stroke="none">
<path d="M1160 1921 l0 -141 48 0 c39 0 156 -34 223 -64 12 -5 30 18 82 108
37 63 67 118 67 121 0 11 -125 65 -196 85 -38 11 -104 23 -146 26 l-78 7 0
-142z"/>
<path d="M1569 1858 c-23 -40 -53 -91 -65 -114 -13 -22 -24 -45 -24 -50 1 -5
23 -25 50 -44 28 -19 49 -38 47 -42 -1 -3 -83 -66 -181 -138 l-179 -132 -72
-2 c-60 -1 -78 -5 -113 -29 -114 -75 -114 -249 0 -324 35 -24 52 -28 108 -28
56 0 73 4 108 28 51 33 85 95 87 161 2 46 9 58 141 232 76 101 142 184 145
184 5 0 44 -48 64 -78 4 -6 235 131 235 140 0 15 -55 91 -110 151 -45 49 -178
157 -193 157 -3 0 -25 -33 -48 -72z"/>
<path d="M1820 1521 c-63 -38 -114 -72 -113 -77 1 -5 14 -37 28 -70 14 -34 30
-96 37 -138 l12 -76 139 0 140 0 -7 63 c-11 97 -42 218 -77 296 -17 39 -34 71
-38 70 -3 0 -58 -31 -121 -68z"/>
<path d="M1775 1074 c-4 -31 -13 -77 -21 -103 -30 -101 -12 -161 60 -195 66
-31 143 -11 182 49 20 31 50 149 59 240 l7 65 -140 0 -140 0 -7 -56z"/>
<path d="M1207 832 c-27 -29 -22 -62 8 -62 18 0 25 5 25 20 0 11 5 20 10 20
18 0 11 -25 -25 -84 -51 -85 -49 -96 25 -96 53 0 60 2 60 20 0 16 -7 20 -30
20 l-30 0 30 47 c17 26 30 59 30 74 0 51 -70 78 -103 41z"/>
<path d="M770 735 l0 -105 29 0 c28 0 30 3 33 43 3 38 5 42 33 45 41 5 55 19
55 54 0 57 -14 68 -85 68 l-65 0 0 -105z m95 45 c0 -13 -6 -25 -12 -27 -16 -6
-27 21 -19 43 9 23 31 11 31 -16z"/>
<path d="M937 773 c-12 -125 -10 -143 17 -143 21 0 24 6 31 63 l8 62 10 -62
c7 -50 12 -63 27 -63 18 0 30 35 30 89 0 20 2 23 10 11 5 -8 10 -34 10 -57 0
-39 2 -43 25 -43 24 0 25 3 25 53 0 28 -3 76 -6 105 l-7 52 -38 0 c-38 0 -39
-1 -39 -37 0 -28 -3 -34 -10 -23 -5 8 -10 25 -10 38 0 19 -5 22 -39 22 l-38 0
-6 -67z"/>
<path d="M1380 789 l0 -52 35 6 35 6 -1 -47 c-1 -44 -2 -46 -12 -19 -15 36
-57 39 -57 3 0 -36 26 -56 70 -56 48 0 60 18 60 89 0 40 -4 52 -20 61 -12 6
-30 8 -40 5 -14 -4 -20 -2 -20 9 0 12 10 16 35 16 24 0 35 5 35 15 0 12 -13
15 -60 15 l-60 0 0 -51z"/>
<path d="M1701 694 c-20 -26 -20 -51 0 -38 6 3 28 -7 50 -22 30 -20 43 -24 51
-16 7 7 10 13 7 15 -56 39 -78 60 -74 67 3 5 1 11 -4 14 -5 4 -19 -6 -30 -20z"/>
<path d="M513 679 c-34 -19 -50 -35 -47 -44 3 -8 13 -11 22 -8 12 5 14 2 9
-11 -15 -38 7 -36 49 5 46 45 52 60 31 77 -9 8 -26 3 -64 -19z m22 -29 c-3 -5
-12 -10 -18 -10 -7 0 -6 4 3 10 19 12 23 12 15 0z"/>
<path d="M1326 672 c-3 -3 -6 -14 -6 -24 0 -13 7 -18 26 -18 20 0 25 4 22 22
-3 20 -30 33 -42 20z"/>
<path d="M563 601 c-33 -29 -40 -41 -30 -49 9 -7 24 0 55 28 42 38 53 60 30
60 -7 -1 -32 -18 -55 -39z"/>
<path d="M1639 618 c-11 -20 -8 -26 31 -60 23 -21 46 -38 51 -38 14 0 10 22
-8 42 -9 10 -11 18 -6 18 6 0 16 -7 23 -15 9 -11 16 -13 24 -5 14 14 -52 79
-81 80 -13 0 -27 -9 -34 -22z m44 -12 c4 -10 1 -13 -9 -9 -7 3 -14 9 -14 14 0
14 17 10 23 -5z"/>
<path d="M601 559 c-36 -41 -40 -50 -25 -56 10 -4 20 0 26 10 5 10 14 17 20
17 6 0 3 -9 -7 -20 -15 -16 -16 -23 -6 -33 10 -9 15 -8 26 8 8 11 24 30 36 42
20 20 21 25 9 47 -21 40 -34 37 -79 -15z m59 1 c0 -5 -5 -10 -11 -10 -5 0 -7
5 -4 10 3 6 8 10 11 10 2 0 4 -4 4 -10z"/>
<path d="M1588 574 c-16 -16 -14 -20 24 -66 39 -46 42 -47 60 -32 23 21 23 36
1 32 -12 -2 -18 4 -18 17 0 11 -7 20 -15 21 -30 2 -32 4 -21 17 10 13 6 27 -9
27 -3 0 -13 -7 -22 -16z"/>
<path d="M713 477 c-21 -35 -28 -55 -22 -62 7 -7 15 -4 23 8 7 9 24 17 38 17
34 0 54 42 30 63 -33 27 -38 25 -69 -26z m57 4 c0 -6 -4 -13 -10 -16 -5 -3
-10 1 -10 9 0 9 5 16 10 16 6 0 10 -4 10 -9z"/>
<path d="M1526 522 c-7 -11 55 -102 70 -102 12 0 34 21 34 33 0 5 -6 7 -14 4
-9 -4 -24 9 -40 34 -26 38 -40 47 -50 31z"/>
<path d="M1468 490 c-16 -10 -15 -14 4 -63 27 -67 37 -78 45 -49 4 16 11 21
23 17 33 -10 30 12 -7 59 -39 50 -40 50 -65 36z m47 -60 c3 -5 1 -10 -4 -10
-6 0 -11 5 -11 10 0 6 2 10 4 10 3 0 8 -4 11 -10z"/>
<path d="M807 462 c-28 -30 -41 -80 -27 -97 20 -24 49 -17 70 18 25 41 25 73
1 87 -25 13 -25 13 -44 -8z m18 -62 c-23 -44 -30 -31 -9 16 9 22 18 34 21 27
2 -6 -3 -26 -12 -43z"/>
<path d="M895 437 c-39 -107 -39 -111 -4 -120 18 -5 20 -2 15 18 -3 12 1 41 8
63 13 35 13 41 0 46 -8 3 -17 0 -19 -7z"/>
<path d="M1377 444 c-3 -3 -3 -13 0 -22 6 -15 4 -15 -14 1 -31 27 -37 6 -17
-58 18 -55 41 -71 36 -24 l-2 24 16 -22 c8 -12 22 -19 29 -17 11 4 9 17 -7 65
-19 56 -27 67 -41 53z"/>
<path d="M956 412 c-2 -9 -7 -30 -11 -47 -3 -16 -8 -37 -11 -46 -3 -12 3 -18
21 -21 27 -6 43 6 25 17 -10 6 -8 36 6 86 3 9 -2 19 -10 22 -9 4 -17 -1 -20
-11z"/>
<path d="M1252 404 c-10 -18 3 -92 18 -108 5 -5 21 -5 36 -2 26 7 26 9 21 57
-3 27 -9 54 -12 59 -10 16 -53 11 -63 -6z m42 -35 c7 -37 8 -64 2 -58 -9 9
-24 89 -16 89 4 0 10 -14 14 -31z"/>
<path d="M1015 360 c-8 -55 4 -80 36 -80 24 0 39 29 39 74 0 20 4 36 8 36 19
0 32 -27 32 -67 0 -32 4 -43 15 -43 11 0 15 12 15 49 0 30 5 51 13 54 22 8 3
15 -53 18 l-55 4 -3 -45 c-2 -25 -8 -49 -14 -55 -7 -7 -8 7 -3 48 5 47 4 57
-8 57 -11 0 -17 -16 -22 -50z"/>
<path d="M1194 379 c3 -17 6 -47 6 -65 0 -24 5 -34 15 -34 11 0 15 11 15 43 0
58 -9 87 -27 87 -12 0 -14 -7 -9 -31z"/>
</g>
</svg>
